<svg width="563.46875px" height="122px" xmlns="http://www.w3.org/2000/svg" viewBox="-31.734375 14 563.46875 122" style="background: none;" preserveAspectRatio="xMidYMid"><defs><filter id="editing-hole" x="-100%" y="-100%" width="300%" height="300%"><feFlood flood-color="#020621" result="black"></feFlood><feMorphology operator="dilate" radius="2" in="SourceGraphic" result="erode"></feMorphology><feGaussianBlur in="erode" stdDeviation="4" result="blur"></feGaussianBlur><feOffset in="blur" dx="2" dy="2" result="offset"></feOffset><feComposite operator="atop" in="offset" in2="black" result="merge"></feComposite><feComposite operator="in" in="merge" in2="SourceGraphic" result="inner-shadow"></feComposite></filter></defs><g filter="url(#editing-hole)"><g transform="translate(50.63999009132385, 104.79000091552734)"><path d="M28.42-9.86L28.42-9.86L28.42-9.86Q29.63-8.32 29.63-5.82L29.63-5.82L29.63-5.82Q29.63-2.37 27.07-0.54L27.07-0.54L27.07-0.54Q24.51 1.28 20.48 1.28L20.48 1.28L20.48 1.28Q18.18 1.28 14.66 0.77L14.66 0.77L14.66 0.77Q7.74-0.32 5.63-0.32L5.63-0.32L5.63-0.32Q3.52-0.32 2.69-0.22L2.69-0.22L2.69-0.22Q1.86-0.13 0.51 0L0.51 0L8.38-42.24L35.97-42.24L35.97-42.24Q35.97-38.34 34.08-36.29L34.08-36.29L34.08-36.29Q32.19-34.24 28.48-34.24L28.48-34.24L28.48-34.24Q24.77-34.24 20.99-35.97L20.99-35.97L19.01-24.77L30.40-24.77L30.40-24.77Q30.40-21.38 28.74-19.49L28.74-19.49L28.74-19.49Q27.07-17.60 24.29-17.60L24.29-17.60L24.29-17.60Q21.50-17.60 19.78-18.24L19.78-18.24L19.78-18.24Q18.05-18.88 17.86-19.07L17.86-19.07L15.55-6.98L15.55-6.98Q17.09-6.78 19.97-6.78L19.97-6.78L19.97-6.78Q24.90-6.78 28.42-9.86ZM38.30-1.92L38.30-1.92L38.30-1.92Q36.80-3.58 36.13-6.21L36.13-6.21L36.13-6.21Q35.46-8.83 35.46-13.12L35.46-13.12L35.46-13.12Q35.46-17.41 36.93-21.31L36.93-21.31L36.93-21.31Q38.40-25.22 41.09-28.03L41.09-28.03L41.09-28.03Q46.59-33.92 55.68-33.92L55.68-33.92L55.68-33.92Q58.94-33.92 61.31-32.83L61.31-32.83L72.26-33.92L67.52-8.96L67.52-8.96Q67.33-8.19 67.33-6.78L67.33-6.78L67.33-6.78Q67.33-5.38 68.19-4.48L68.19-4.48L68.19-4.48Q69.06-3.58 70.34-3.46L70.34-3.46L70.34-3.46Q69.70-1.28 67.36 0L67.36 0L67.36 0Q65.02 1.28 62.40 1.28L62.40 1.28L62.40 1.28Q59.78 1.28 58.02 0.29L58.02 0.29L58.02 0.29Q56.26-0.70 55.74-2.37L55.74-2.37L55.74-2.37Q54.72-0.77 52.54 0.26L52.54 0.26L52.54 0.26Q50.37 1.28 47.46 1.28L47.46 1.28L47.46 1.28Q44.54 1.28 42.18 0.51L42.18 0.51L42.18 0.51Q39.81-0.26 38.30-1.92ZM51.81-27.90L51.81-27.90L51.81-27.90Q51.07-26.75 50.43-24.80L50.43-24.80L50.43-24.80Q49.79-22.85 48.74-17.63L48.74-17.63L48.74-17.63Q47.68-12.42 47.68-8.70L47.68-8.70L47.68-8.70Q47.68-4.99 48.26-3.90L48.26-3.90L48.26-3.90Q48.83-2.82 49.86-2.82L49.86-2.82L49.86-2.82Q51.90-2.82 53.41-4.77L53.41-4.77L53.41-4.77Q54.91-6.72 55.49-10.18L55.49-10.18L58.88-28.93L58.88-28.93Q57.54-30.08 55.97-30.08L55.97-30.08L55.97-30.08Q54.40-30.08 53.47-29.57L53.47-29.57L53.47-29.57Q52.54-29.06 51.81-27.90ZM94.85-22.46L94.85-22.46L94.85-22.46Q95.74-24.83 95.74-26.88L95.74-26.88L95.74-26.88Q95.74-30.66 92.67-30.66L92.67-30.66L92.67-30.66Q91.07-30.66 89.76-29.22L89.76-29.22L89.76-29.22Q88.45-27.78 88.45-25.98L88.45-25.98L88.45-25.98Q88.45-24.70 89.47-23.68L89.47-23.68L89.47-23.68Q90.94-22.27 94.72-19.97L94.72-19.97L94.72-19.97Q98.50-17.66 99.94-15.78L99.94-15.78L99.94-15.78Q101.38-13.89 101.38-11.30L101.38-11.30L101.38-11.30Q101.38-8.70 100.13-6.34L100.13-6.34L100.13-6.34Q98.88-3.97 96.64-2.30L96.64-2.30L96.64-2.30Q91.84 1.28 84.16 1.28L84.16 1.28L84.16 1.28Q80 1.28 76.80-0.90L76.80-0.90L76.80-0.90Q73.60-3.01 73.60-5.50L73.60-5.50L73.60-5.50Q73.60-8 75.42-9.47L75.42-9.47L75.42-9.47Q77.25-10.94 79.94-10.94L79.94-10.94L79.94-10.94Q82.62-10.94 84.29-9.92L84.29-9.92L84.29-9.92Q83.46-7.81 83.46-6.40L83.46-6.40L83.46-6.40Q83.46-2.18 87.04-2.18L87.04-2.18L87.04-2.18Q88.58-2.18 89.60-3.14L89.60-3.14L89.60-3.14Q90.62-4.10 90.62-5.76L90.62-5.76L90.62-5.76Q90.62-9.02 85.12-12.48L85.12-12.48L85.12-12.48Q80.64-15.42 79.62-16.58L79.62-16.58L79.62-16.58Q77.89-18.62 77.89-21.18L77.89-21.18L77.89-21.18Q77.89-23.74 79.10-26.18L79.10-26.18L79.10-26.18Q80.32-28.61 82.56-30.34L82.56-30.34L82.56-30.34Q87.23-33.92 95.36-33.92L95.36-33.92L95.36-33.92Q99.52-33.92 101.98-32.26L101.98-32.26L101.98-32.26Q104.45-30.59 104.45-27.78L104.45-27.78L104.45-27.78Q104.45-24.96 102.75-23.36L102.75-23.36L102.75-23.36Q101.06-21.76 97.98-21.76L97.98-21.76L97.98-21.76Q95.87-21.76 94.85-22.46ZM127.17-7.23L127.17-7.23L127.17-7.23Q123.84-3.78 117.76-3.78L117.76-3.78L117.76-3.78Q110.14-3.78 108.54-9.34L108.54-9.34L108.54-9.34Q108.03-11.01 108.03-12.86L108.03-12.86L108.03-12.86Q108.03-14.72 108.42-16.64L108.42-16.64L111.42-32.64L124.42-33.92L120.90-15.30L120.90-15.30Q120.77-14.46 120.58-13.57L120.58-13.57L120.58-13.57Q120.38-12.67 120.38-11.74L120.38-11.74L120.38-11.74Q120.38-10.82 120.70-10.21L120.70-10.21L120.70-10.21Q121.02-9.60 121.47-9.22L121.47-9.22L121.47-9.22Q122.24-8.70 123.62-8.70L123.62-8.70L123.62-8.70Q124.99-8.70 126.18-10.37L126.18-10.37L126.18-10.37Q127.36-12.03 127.94-14.91L127.94-14.91L131.46-32.64L144.06-33.92L139.26-8.77L139.26-8.77Q136.90 3.52 132.03 8.38L132.03 8.38L132.03 8.38Q129.54 10.88 126.30 11.87L126.30 11.87L126.30 11.87Q123.07 12.86 118.91 12.86L118.91 12.86L118.91 12.86Q112.19 12.86 108.35 10.75L108.35 10.75L108.35 10.75Q104.51 8.64 104.51 5.12L104.51 5.12L104.51 5.12Q104.51 2.50 106.50 0.99L106.50 0.99L106.50 0.99Q108.48-0.51 111.55-0.51L111.55-0.51L111.55-0.51Q114.24-0.51 116.29 0.64L116.29 0.64L116.29 0.64Q117.50 1.34 118.08 2.24L118.08 2.24L118.08 2.24Q116.61 3.52 116.61 5.63L116.61 5.63L116.61 5.63Q116.61 8.45 119.17 8.45L119.17 8.45L119.17 8.45Q123.39 8.45 125.82-1.28L125.82-1.28L125.82-1.28Q126.53-4.16 127.17-7.23ZM145.73-0.32L145.73-0.32L153.79-42.24L153.79-42.24Q161.34-42.88 166.21-42.88L166.21-42.88L166.21-42.88Q171.07-42.88 174.21-42.46L174.21-42.46L174.21-42.46Q177.34-42.05 179.46-40.96L179.46-40.96L179.46-40.96Q183.68-38.91 183.68-33.28L183.68-33.28L183.68-33.28Q183.68-30.02 180.86-27.26L180.86-27.26L180.86-27.26Q178.24-24.77 175.36-24.19L175.36-24.19L175.36-24.19Q178.43-23.68 180.61-21.38L180.61-21.38L180.61-21.38Q182.91-18.94 182.91-15.17L182.91-15.17L182.91-15.17Q182.91-7.87 177.47-3.62L177.47-3.62L177.47-3.62Q172.03 0.64 161.34 0.64L161.34 0.64L161.34 0.64Q153.98 0.64 145.73-0.32ZM163.14-20.61L159.94-4.03L159.94-4.03Q160.51-3.97 160.64-3.97L160.64-3.97L161.22-3.97L161.22-3.97Q166.46-3.97 168.70-7.42L168.70-7.42L168.70-7.42Q170.37-10.11 170.37-15.04L170.37-15.04L170.37-15.04Q170.37-17.66 168.67-19.07L168.67-19.07L168.67-19.07Q166.98-20.48 163.14-20.61L163.14-20.61ZM172.86-33.22L172.86-33.22L172.86-33.22Q172.86-38.53 167.74-38.53L167.74-38.53L167.17-38.53L167.17-38.53Q166.91-38.53 166.53-38.46L166.53-38.46L163.97-24.96L164.61-24.96L164.61-24.96Q172.86-25.15 172.86-33.22ZM201.09 1.28L201.09 1.28L201.09 1.28Q187.01 1.28 187.01-11.97L187.01-11.97L187.01-11.97Q187.01-21.38 192.19-27.46L192.19-27.46L192.19-27.46Q197.70-33.92 207.23-33.92L207.23-33.92L207.23-33.92Q214.14-33.92 217.66-30.72L217.66-30.72L217.66-30.72Q221.18-27.52 221.18-20.80L221.18-20.80L221.18-20.80Q221.18-10.56 215.68-4.61L215.68-4.61L215.68-4.61Q210.30 1.28 201.09 1.28ZM202.75-26.56L202.75-26.56L202.75-26.56Q201.98-24.83 201.38-22.24L201.38-22.24L201.38-22.24Q200.77-19.65 200-15.55L200-15.55L200-15.55Q199.23-11.46 199.23-6.40L199.23-6.40L199.23-6.40Q199.23-4.74 199.78-3.65L199.78-3.65L199.78-3.65Q200.32-2.56 201.79-2.56L201.79-2.56L201.79-2.56Q203.26-2.56 204.19-3.26L204.19-3.26L204.19-3.26Q205.12-3.97 205.82-5.63L205.82-5.63L205.82-5.63Q207.10-8.58 208.13-14.05L208.13-14.05L208.13-14.05Q209.15-19.52 209.25-21.89L209.25-21.89L209.25-21.89Q209.34-24.26 209.34-26.02L209.34-26.02L209.34-26.02Q209.34-27.78 208.83-28.93L208.83-28.93L208.83-28.93Q208.32-30.08 206.88-30.08L206.88-30.08L206.88-30.08Q205.44-30.08 204.48-29.18L204.48-29.18L204.48-29.18Q203.52-28.29 202.75-26.56ZM238.91 1.28L238.91 1.28L238.91 1.28Q224.83 1.28 224.83-11.97L224.83-11.97L224.83-11.97Q224.83-21.38 230.02-27.46L230.02-27.46L230.02-27.46Q235.52-33.92 245.06-33.92L245.06-33.92L245.06-33.92Q251.97-33.92 255.49-30.72L255.49-30.72L255.49-30.72Q259.01-27.52 259.01-20.80L259.01-20.80L259.01-20.80Q259.01-10.56 253.50-4.61L253.50-4.61L253.50-4.61Q248.13 1.28 238.91 1.28ZM240.58-26.56L240.58-26.56L240.58-26.56Q239.81-24.83 239.20-22.24L239.20-22.24L239.20-22.24Q238.59-19.65 237.82-15.55L237.82-15.55L237.82-15.55Q237.06-11.46 237.06-6.40L237.06-6.40L237.06-6.40Q237.06-4.74 237.60-3.65L237.60-3.65L237.60-3.65Q238.14-2.56 239.62-2.56L239.62-2.56L239.62-2.56Q241.09-2.56 242.02-3.26L242.02-3.26L242.02-3.26Q242.94-3.97 243.65-5.63L243.65-5.63L243.65-5.63Q244.93-8.58 245.95-14.05L245.95-14.05L245.95-14.05Q246.98-19.52 247.07-21.89L247.07-21.89L247.07-21.89Q247.17-24.26 247.17-26.02L247.17-26.02L247.17-26.02Q247.17-27.78 246.66-28.93L246.66-28.93L246.66-28.93Q246.14-30.08 244.70-30.08L244.70-30.08L244.70-30.08Q243.26-30.08 242.30-29.18L242.30-29.18L242.30-29.18Q241.34-28.29 240.58-26.56ZM279.30-30.34L279.30-30.34L279.30-30.34Q282.75-33.92 290.05-33.92L290.05-33.92L290.05-33.92Q294.08-33.92 296.29-31.78L296.29-31.78L296.29-31.78Q298.50-29.63 298.50-25.70L298.50-25.70L298.50-25.70Q298.50-21.76 296.29-18.98L296.29-18.98L296.29-18.98Q294.08-16.19 289.98-15.04L289.98-15.04L289.98-15.04Q290.30-13.76 290.75-12.42L290.75-12.42L291.65-9.86L291.65-9.86Q292.86-6.59 293.82-5.44L293.82-5.44L293.82-5.44Q294.78-4.29 296.06-3.90L296.06-3.90L296.06-3.90Q295.36-1.28 292.80 0.13L292.80 0.13L292.80 0.13Q290.75 1.28 287.94 1.28L287.94 1.28L287.94 1.28Q279.68 1.28 278.59-11.46L278.59-11.46L278.59-11.46Q278.40-13.25 278.40-15.04L278.40-15.04L278.40-15.04Q281.60-15.94 283.84-18.94L283.84-18.94L283.84-18.94Q286.08-21.95 286.08-25.47L286.08-25.47L286.08-25.47Q286.08-28.99 283.58-28.99L283.58-28.99L283.58-28.99Q281.79-28.99 280.38-27.01L280.38-27.01L280.38-27.01Q278.98-25.02 278.34-21.63L278.34-21.63L274.11 0L261.18 1.28L270.14-44.80L283.01-46.08L281.54-38.46L281.54-38.46Q280.58-33.09 279.30-30.34ZM316.80-3.52L316.80-3.52L316.80-3.52Q314.82 1.28 308.48 1.28L308.48 1.28L308.48 1.28Q305.22 1.28 303.17-0.96L303.17-0.96L303.17-0.96Q301.44-2.94 301.44-4.93L301.44-4.93L301.44-4.93Q301.44-10.11 303.81-20.22L303.81-20.22L306.18-32.64L319.17-33.92L315.26-13.70L315.26-13.70Q314.18-8.96 314.18-7.30L314.18-7.30L314.18-7.30Q314.18-3.65 316.80-3.52ZM307.33-41.54L307.33-41.54L307.33-41.54Q307.33-44.03 309.41-45.38L309.41-45.38L309.41-45.38Q311.49-46.72 314.50-46.72L314.50-46.72L314.50-46.72Q317.50-46.72 319.33-45.38L319.33-45.38L319.33-45.38Q321.15-44.03 321.15-41.54L321.15-41.54L321.15-41.54Q321.15-39.04 319.14-37.76L319.14-37.76L319.14-37.76Q317.12-36.48 314.11-36.48L314.11-36.48L314.11-36.48Q311.10-36.48 309.22-37.76L309.22-37.76L309.22-37.76Q307.33-39.04 307.33-41.54ZM349.31 1.28L349.31 1.28L349.31 1.28Q341.57 1.28 341.57-4.74L341.57-4.74L341.57-4.74Q341.63-6.40 342.14-9.22L342.14-9.22L343.30-15.10L343.30-15.10Q345.02-23.42 345.02-25.28L345.02-25.28L345.02-25.28Q345.02-28.99 342.85-28.99L342.85-28.99L342.85-28.99Q339.20-28.99 337.28-19.46L337.28-19.46L333.50 0L320.64 1.28L327.30-32.70L337.79-33.92L336.77-27.65L336.77-27.65Q339.78-33.92 348.99-33.92L348.99-33.92L348.99-33.92Q353.47-33.92 355.36-32.03L355.36-32.03L355.36-32.03Q357.25-30.14 357.25-25.92L357.25-25.92L357.25-25.92Q357.25-21.95 355.20-12.67L355.20-12.67L355.20-12.67Q354.24-8.51 354.24-6.94L354.24-6.94L354.24-6.94Q354.24-5.38 355.10-4.48L355.10-4.48L355.10-4.48Q355.97-3.58 357.25-3.46L357.25-3.46L357.25-3.46Q356.61-1.28 354.40 0L354.40 0L354.40 0Q352.19 1.28 349.31 1.28ZM366.91-26.75L366.91-26.75L366.91-26.75Q369.09-29.82 372.38-31.87L372.38-31.87L372.38-31.87Q375.68-33.92 379.71-33.92L379.71-33.92L379.71-33.92Q383.74-33.92 385.66-32.64L385.66-32.64L398.21-33.92L393.86-9.34L393.86-9.34Q391.62 3.20 386.88 8.13L386.88 8.13L386.88 8.13Q382.34 12.80 373.50 12.80L373.50 12.80L373.50 12.80Q366.78 12.80 362.94 10.69L362.94 10.69L362.94 10.69Q359.10 8.58 359.10 5.06L359.10 5.06L359.10 5.06Q359.10 2.43 361.09 0.93L361.09 0.93L361.09 0.93Q363.07-0.58 366.14-0.58L366.14-0.58L366.14-0.58Q368.83-0.58 370.88 0.64L370.88 0.64L370.88 0.64Q372.10 1.28 372.67 2.18L372.67 2.18L372.67 2.18Q371.20 3.46 371.20 5.57L371.20 5.57L371.20 5.57Q371.20 8.32 373.76 8.32L373.76 8.32L373.76 8.32Q378.05 8.32 380.48-1.79L380.48-1.79L380.48-1.79Q381.18-4.54 381.76-7.30L381.76-7.30L381.76-7.30Q378.88-3.78 372.35-3.78L372.35-3.78L372.35-3.78Q367.81-3.78 365.18-5.95L365.18-5.95L365.18-5.95Q362.56-8.13 362.56-13.25L362.56-13.25L362.56-13.25Q362.56-16.45 363.65-20.06L363.65-20.06L363.65-20.06Q364.74-23.68 366.91-26.75ZM375.23-13.06L375.23-13.06L375.23-13.06Q375.23-8.70 377.47-8.70L377.47-8.70L377.47-8.70Q379.01-8.70 380.48-10.37L380.48-10.37L380.48-10.37Q381.63-11.71 382.08-13.70L382.08-13.70L385.34-30.14L385.34-30.14Q385.02-30.21 384.70-30.34L384.70-30.34L384.70-30.34Q384.06-30.59 383.23-30.59L383.23-30.59L383.23-30.59Q379.33-30.59 377.02-24.19L377.02-24.19L377.02-24.19Q375.23-19.20 375.23-13.06Z" fill="#2bde73"></path></g></g><style>text {
  font-size: 64px;
  font-family: Arial Black;
  dominant-baseline: central;
  text-anchor: middle;
}</style></svg>